<?xml version="1.0" standalone="no"?>
<!DOCTYPE svg PUBLIC "-//W3C//DTD SVG 20010904//EN"
 "http://www.w3.org/TR/2001/REC-SVG-20010904/DTD/svg10.dtd">
<svg version="1.0" xmlns="http://www.w3.org/2000/svg"
 width="1376.000000pt" height="1376.000000pt" viewBox="0 0 1376.000000 1376.000000"
 preserveAspectRatio="xMidYMid meet">
<metadata>
Created by potrace 1.11, written by Peter Selinger 2001-2013
</metadata>
<g transform="translate(0.000000,1376.000000) scale(0.100000,-0.100000)"
fill="#000000" stroke="none">
<path d="M6648 11755 c-1 -1 -50 -5 -108 -9 -58 -3 -116 -8 -130 -10 -14 -3
-54 -7 -90 -10 -36 -4 -90 -10 -120 -16 -51 -8 -118 -19 -165 -26 -11 -1 -20
-3 -20 -4 0 -2 -20 -6 -68 -14 -54 -9 -233 -50 -239 -56 -2 -1 -10 -3 -18 -5
-79 -16 -489 -147 -515 -165 -5 -4 -32 -15 -60 -25 -45 -16 -104 -41 -192 -81
-17 -8 -36 -14 -42 -14 -6 0 -11 -5 -11 -10 0 -6 -3 -9 -7 -8 -12 3 -167 -73
-171 -83 -2 -5 -11 -9 -21 -9 -9 0 -21 -4 -27 -9 -5 -5 -47 -29 -94 -54 -102
-53 -244 -139 -248 -149 -2 -5 -8 -8 -14 -8 -12 0 -182 -111 -186 -122 -2 -4
-9 -8 -16 -8 -7 0 -21 -9 -31 -20 -10 -11 -22 -20 -26 -20 -9 0 -212 -152
-275 -207 -12 -10 -39 -31 -60 -48 -21 -16 -51 -42 -66 -57 -16 -16 -31 -28
-33 -28 -3 0 -23 -18 -45 -40 -22 -22 -42 -40 -44 -40 -3 0 -67 -63 -143 -140
-76 -77 -598 -603 -1160 -1168 -563 -564 -1023 -1030 -1023 -1034 0 -5 -3 -8
-7 -8 -11 0 -11 0 -630 -623 l-543 -546 1809 -1808 c995 -994 1830 -1826 1856
-1848 27 -22 55 -46 62 -54 8 -8 28 -24 43 -35 49 -36 235 -179 240 -185 3 -3
12 -10 22 -16 9 -5 75 -49 146 -98 71 -48 134 -87 141 -87 6 0 11 -4 11 -8 0
-5 19 -19 43 -31 23 -12 65 -36 92 -53 83 -51 325 -177 425 -221 19 -8 67 -30
105 -47 39 -18 77 -33 87 -35 9 -2 29 -10 46 -19 16 -8 32 -12 36 -9 3 4 6 1
6 -5 0 -7 9 -12 20 -12 11 0 28 -4 38 -9 25 -13 151 -59 182 -66 8 -2 16 -4
18 -5 1 -2 5 -3 10 -4 4 -1 41 -13 82 -25 41 -13 85 -25 99 -28 13 -2 28 -6
33 -9 4 -3 18 -7 30 -10 13 -3 28 -6 33 -8 39 -11 194 -46 231 -52 20 -3 45
-8 55 -10 52 -11 66 -14 104 -20 22 -3 54 -8 70 -10 17 -2 46 -6 65 -9 19 -3
58 -8 85 -11 28 -3 61 -7 75 -9 150 -26 747 -26 960 -1 69 8 145 18 165 21 11
2 40 6 65 9 25 4 59 9 75 13 17 4 37 7 45 9 56 8 122 21 205 40 11 3 31 7 45
10 21 4 48 10 83 19 4 2 8 3 10 5 2 2 15 5 52 13 11 3 40 11 65 18 25 7 50 13
55 15 6 1 32 10 59 19 26 9 56 18 65 20 20 5 208 72 239 85 52 23 70 30 117
49 28 10 84 34 125 53 41 19 103 47 138 63 34 15 62 32 62 38 0 6 3 8 6 5 3
-4 38 11 77 33 40 21 92 49 117 61 25 13 47 25 50 28 3 3 14 10 25 16 50 27
70 40 83 51 7 7 24 16 38 19 13 3 24 10 24 15 0 5 7 9 15 9 8 0 15 5 15 10 0
6 4 10 9 10 13 0 263 169 279 189 7 9 14 14 15 11 3 -7 247 181 344 265 74 65
190 173 242 226 163 165 2217 2232 2228 2243 18 16 243 242 735 737 l428 429
-1799 1798 c-989 988 -1815 1813 -1837 1832 -21 19 -64 55 -94 80 -30 25 -60
49 -66 55 -15 14 -59 48 -124 96 -30 22 -64 48 -76 57 -11 9 -28 22 -36 27
-23 14 -191 128 -203 138 -35 27 -102 67 -112 67 -7 0 -13 5 -13 10 0 6 -4 10
-8 10 -5 0 -47 22 -93 50 -46 27 -90 50 -96 50 -7 0 -13 3 -13 8 0 4 -10 12
-23 18 -12 6 -71 36 -132 66 -162 82 -403 188 -455 201 -3 0 -16 6 -29 13 -14
7 -28 11 -33 8 -4 -3 -8 -1 -8 4 0 5 -6 9 -12 9 -7 0 -44 12 -83 26 -76 28
-284 90 -380 113 -33 8 -76 19 -95 24 -35 9 -133 29 -176 36 -13 2 -34 6 -46
8 -40 7 -82 14 -128 21 -25 4 -58 9 -75 12 -16 3 -43 6 -60 8 -31 3 -124 12
-210 21 -56 6 -591 14 -597 9z m482 -2448 c14 -2 54 -8 90 -12 36 -4 67 -8 70
-10 3 -2 25 -6 49 -10 24 -3 53 -10 65 -14 11 -4 28 -7 36 -6 8 1 21 -3 28 -8
6 -5 12 -6 12 -3 0 4 8 2 19 -3 10 -6 33 -13 51 -16 18 -3 41 -10 51 -16 11
-5 19 -7 19 -3 0 3 7 1 15 -6 8 -7 15 -9 15 -5 0 4 6 3 13 -3 6 -6 15 -11 19
-11 30 -5 126 -43 235 -93 23 -11 45 -19 49 -18 3 1 12 -7 20 -17 7 -10 14
-14 14 -9 0 5 9 1 21 -10 12 -10 23 -18 25 -17 5 3 37 -9 49 -19 6 -5 44 -30
85 -56 42 -26 87 -56 102 -67 14 -11 36 -27 48 -35 110 -73 420 -368 420 -401
0 -5 4 -9 8 -9 5 0 21 -18 38 -41 16 -22 34 -46 40 -52 20 -23 134 -196 134
-205 0 -4 9 -18 20 -30 12 -12 18 -22 16 -22 -3 0 10 -26 29 -57 19 -31 32
-60 29 -65 -3 -4 0 -8 5 -8 6 0 11 -9 11 -19 0 -11 4 -22 8 -25 5 -3 21 -36
36 -73 16 -37 34 -82 42 -98 7 -17 15 -43 18 -58 2 -14 8 -32 13 -39 4 -7 9
-17 10 -23 1 -5 16 -61 32 -122 16 -62 32 -127 35 -145 3 -18 8 -49 11 -68 3
-19 8 -48 11 -65 25 -144 24 -548 -2 -677 -2 -13 -6 -39 -9 -58 -5 -39 -9 -59
-30 -150 -3 -14 -7 -34 -10 -45 -2 -11 -11 -41 -19 -67 -8 -27 -12 -48 -9 -48
3 0 -1 -7 -8 -17 -8 -9 -12 -18 -10 -20 1 -2 -1 -16 -7 -31 -6 -15 -13 -36
-18 -47 -4 -11 -8 -25 -9 -31 -5 -21 -85 -200 -115 -255 -16 -30 -41 -77 -55
-106 -15 -29 -33 -57 -41 -64 -8 -6 -14 -16 -14 -21 0 -11 -42 -72 -52 -76 -5
-2 -8 -9 -8 -16 0 -6 -8 -19 -17 -28 -25 -23 -43 -46 -43 -54 0 -6 -48 -65
-120 -148 -63 -72 -233 -232 -305 -287 -16 -13 -33 -28 -37 -34 -5 -6 -8 -6
-8 0 0 5 -7 -1 -16 -13 -8 -12 -19 -22 -24 -22 -5 0 -44 -24 -87 -54 -43 -29
-96 -63 -118 -75 -22 -12 -59 -32 -82 -45 -24 -14 -43 -22 -43 -19 0 4 -8 -1
-17 -9 -37 -32 -329 -143 -453 -173 -8 -2 -15 -4 -15 -5 0 -1 -7 -3 -15 -5 -8
-2 -46 -11 -85 -19 -38 -9 -90 -19 -115 -22 -25 -3 -61 -7 -80 -10 -203 -28
-548 -24 -723 10 -114 22 -191 39 -237 52 -113 33 -215 67 -224 75 -6 5 -16 9
-23 9 -22 0 -230 96 -257 119 -10 9 -21 15 -25 15 -8 -2 -34 8 -46 18 -22 18
-191 124 -198 126 -5 0 -17 10 -26 21 -10 12 -22 21 -27 21 -5 0 -25 15 -45
33 -20 17 -55 48 -79 67 -53 44 -193 183 -243 241 -20 24 -43 51 -51 59 -8 8
-44 56 -80 105 -36 50 -70 95 -76 102 -5 7 -10 15 -10 17 0 3 -17 32 -37 63
-21 32 -38 61 -38 65 0 3 -3 9 -7 13 -12 13 -106 210 -133 281 -15 38 -31 78
-35 89 -5 11 -14 38 -20 60 -6 22 -14 47 -17 55 -3 8 -8 24 -10 35 -2 11 -6
27 -10 35 -6 16 -10 32 -17 72 -2 14 -7 36 -11 48 -4 12 -8 32 -10 43 -2 12
-6 38 -9 57 -24 143 -30 225 -30 410 -1 155 6 273 18 335 2 11 7 42 10 68 10
64 10 66 37 177 13 52 24 100 24 105 0 6 2 12 5 15 3 3 15 34 25 70 11 36 25
76 32 90 7 14 13 28 13 32 0 15 80 185 130 278 55 101 139 233 152 238 4 2 8
10 8 18 0 8 5 14 10 14 6 0 10 7 10 15 0 8 4 15 8 15 5 0 21 18 38 40 66 91
235 268 323 338 25 20 48 40 51 43 20 26 271 199 288 199 7 0 12 3 12 8 0 4
10 12 23 18 12 6 71 36 130 67 59 31 111 57 115 58 14 3 38 12 72 27 19 8 38
16 43 17 4 2 9 4 12 5 3 1 8 3 13 4 10 2 113 36 132 43 8 3 21 7 28 9 8 1 21
6 30 10 9 3 28 8 42 10 28 5 43 8 80 17 31 8 74 16 120 23 19 2 46 7 60 9 14
3 59 8 100 11 41 4 76 8 78 9 5 5 383 -3 412 -8z"/>
</g>
</svg>
