<svg xmlns="http://www.w3.org/2000/svg" width="24" height="24" viewBox="0 0 24 24"><g fill-rule="evenodd" clip-rule="evenodd"><path d="M12.043 2.423c3.057 0 6.112-.005 9.17.002 1.813.003 2.733.904 2.738 2.713.01 4.565.01 9.134 0 13.7-.004 1.8-.943 2.734-2.73 2.735-6.145.005-12.29.005-18.435 0-1.793 0-2.735-.936-2.738-2.724C.04 14.28.04 9.714.047 5.147c.003-1.805.925-2.72 2.728-2.722 3.09-.007 6.18-.003 9.268-.003zm9.504 16.692V4.92H2.407v14.195h19.14z"/><path d="M19.127 16.69h-5.835c-.146-.952-.128-1.654 1.01-2.022 1.16-.374 1.357-1.163.68-2.208-.724-1.124-1.113-2.278-.763-3.615.27-1.02.91-1.553 1.933-1.58 1.042-.025 1.813.527 2.053 1.56.28 1.194.09 2.308-.61 3.356-.93 1.393-.773 1.974.788 2.567 1.027.39.62 1.164.743 1.943zM10.7 10.98v2.077H4.87V10.98h5.83zM4.852 16.68v-2.1h5.834v2.1H4.852zM10.703 7.353v2.07h-5.83v-2.07h5.83z"/></g></svg>