<?xml version="1.0" encoding="utf-8"?>
<!-- Generator: Adobe Illustrator 16.0.0, SVG Export Plug-In . SVG Version: 6.00 Build 0)  -->
<!DOCTYPE svg PUBLIC "-//W3C//DTD SVG 1.1//EN" "http://www.w3.org/Graphics/SVG/1.1/DTD/svg11.dtd">
<svg version="1.1" id="Layer_1" xmlns="http://www.w3.org/2000/svg" xmlns:xlink="http://www.w3.org/1999/xlink" x="0px" y="0px"
	 width="24px" height="24px" viewBox="0 0 24 24" enable-background="new 0 0 24 24" xml:space="preserve">
<g>
	<path fill-rule="evenodd" clip-rule="evenodd" d="M12.043,2.423c3.057,0,6.112-0.005,9.169,0.002
		c1.814,0.003,2.734,0.904,2.739,2.713c0.01,4.565,0.009,9.134,0,13.699c-0.005,1.801-0.944,2.735-2.731,2.736
		c-6.145,0.005-12.29,0.005-18.435,0c-1.793-0.001-2.735-0.936-2.738-2.724c-0.008-4.568-0.008-9.134,0-13.701
		C0.05,3.343,0.972,2.429,2.775,2.426C5.866,2.419,8.955,2.423,12.043,2.423z M21.547,19.115c0-4.796,0-9.509,0-14.195
		c-6.437,0-12.797,0-19.141,0c0,4.773,0,9.46,0,14.195C8.801,19.115,15.135,19.115,21.547,19.115z"/>
	<path fill-rule="evenodd" clip-rule="evenodd" d="M19.127,16.69c-2.009,0-3.905,0-5.835,0c-0.146-0.952-0.128-1.654,1.011-2.022
		c1.159-0.374,1.356-1.163,0.68-2.208c-0.725-1.124-1.114-2.278-0.764-3.615c0.27-1.021,0.912-1.553,1.934-1.579
		c1.042-0.026,1.813,0.526,2.053,1.558c0.28,1.195,0.09,2.309-0.61,3.357c-0.931,1.392-0.773,1.973,0.788,2.566
		C19.411,15.138,19.004,15.911,19.127,16.69z"/>
	<path fill-rule="evenodd" clip-rule="evenodd" d="M10.701,10.981c0,0.716,0,1.372,0,2.076c-1.957,0-3.858,0-5.83,0
		c0-0.677,0-1.333,0-2.076C6.766,10.981,8.69,10.981,10.701,10.981z"/>
	<path fill-rule="evenodd" clip-rule="evenodd" d="M4.852,16.681c0-0.735,0-1.391,0-2.101c1.953,0,3.855,0,5.834,0
		c0,0.681,0,1.363,0,2.101C8.754,16.681,6.854,16.681,4.852,16.681z"/>
	<path fill-rule="evenodd" clip-rule="evenodd" d="M10.703,7.353c0,0.709,0,1.365,0,2.071c-1.956,0-3.857,0-5.829,0
		c0-0.669,0-1.326,0-2.071C6.763,7.353,8.688,7.353,10.703,7.353z"/>
</g>
</svg>
