<?xml version="1.0" encoding="utf-8"?>
<!-- Generator: Adobe Illustrator 16.0.0, SVG Export Plug-In . SVG Version: 6.00 Build 0)  -->
<!DOCTYPE svg PUBLIC "-//W3C//DTD SVG 1.1//EN" "http://www.w3.org/Graphics/SVG/1.1/DTD/svg11.dtd">
<svg version="1.1" id="Layer_1" xmlns="http://www.w3.org/2000/svg" xmlns:xlink="http://www.w3.org/1999/xlink" x="0px" y="0px"
	 width="328.922px" height="78.511px" viewBox="0 0 328.922 78.511" enable-background="new 0 0 328.922 78.511"
	 xml:space="preserve">
<path d="M175.635,4.918c0,0-4.125-4.918-11.189-4.918c-6.953,0-11.23,4.94-11.23,4.94l-10.289,10.331l10.361,10.354
	c0,0,4.125,4.921,11.193,4.921c6.951,0,11.229-4.942,11.229-4.942l10.287-10.332L175.635,4.918z M164.459,22.906
	c-4.217,0-7.635-3.416-7.635-7.633s3.418-7.635,7.635-7.635c4.219,0,7.635,3.418,7.635,7.635S168.678,22.906,164.459,22.906z"/>
<g>
	<path d="M221.779,78.511l-8.576-10.531v10.531h-5.516V58.27h5.139l8.576,10.588V58.27h5.488v20.241H221.779z"/>
	<path d="M264.736,62.889v3.177h10.545v4.619h-10.545v3.207h10.545v4.619h-16.553V58.27h16.553v4.619H264.736z"/>
	<path d="M314.859,78.511l-7.738-20.242h6.41l4.619,14.004l4.619-14.004h6.152l-7.826,20.242H314.859z"/>
	<path d="M168.109,58.269l7.738,20.242h-6.41l-4.619-14.005l-4.621,14.005h-6.152l7.826-20.242H168.109z"/>
	<path d="M8.865,58.269c6.553,0,10.885,4.014,10.885,10.106c0,6.092-4.416,10.136-11.088,10.136H0V58.269H8.865z M6.006,73.803
		h3.031c2.744,0,4.592-2.136,4.592-5.37c0-3.264-1.992-5.43-4.879-5.43H6.006V73.803z"/>
	<path d="M70.617,69.702c0,5.372-3.666,8.809-9.441,8.809c-5.805,0-9.588-3.437-9.588-8.809V58.269h6.006v11.434
		c0,2.34,1.59,3.783,3.609,3.783c1.994,0,3.408-1.414,3.408-3.783V58.269h6.006V69.702z"/>
	<path d="M111.32,58.269c6.555,0,10.887,4.014,10.887,10.106c0,6.092-4.418,10.136-11.09,10.136h-8.662V58.269H111.32z
		 M108.461,73.803h3.033c2.742,0,4.59-2.136,4.59-5.37c0-3.264-1.992-5.43-4.879-5.43h-2.744V73.803z"/>
</g>
</svg>
