<?xml version="1.0" encoding="utf-8"?>
<!-- Generator: Adobe Illustrator 16.0.0, SVG Export Plug-In . SVG Version: 6.00 Build 0)  -->
<!DOCTYPE svg PUBLIC "-//W3C//DTD SVG 1.1//EN" "http://www.w3.org/Graphics/SVG/1.1/DTD/svg11.dtd">
<svg version="1.1" id="Layer_1" xmlns="http://www.w3.org/2000/svg" xmlns:xlink="http://www.w3.org/1999/xlink" x="0px" y="0px"
	 width="43.07px" height="30.546px" viewBox="0 0 43.07 30.546" enable-background="new 0 0 43.07 30.546" xml:space="preserve">
<path d="M32.709,4.918c0,0-4.125-4.918-11.189-4.918c-6.953,0-11.23,4.94-11.23,4.94L0,15.271l10.361,10.354
	c0,0,4.125,4.921,11.193,4.921c6.951,0,11.229-4.942,11.229-4.942L43.07,15.271L32.709,4.918z M21.533,22.906
	c-4.217,0-7.635-3.416-7.635-7.633s3.418-7.635,7.635-7.635c4.219,0,7.635,3.418,7.635,7.635S25.752,22.906,21.533,22.906z"/>
</svg>
