<?xml version="1.0" encoding="utf-8"?>
<!-- Generator: Adobe Illustrator 16.0.0, SVG Export Plug-In . SVG Version: 6.00 Build 0)  -->
<!DOCTYPE svg PUBLIC "-//W3C//DTD SVG 1.1//EN" "http://www.w3.org/Graphics/SVG/1.1/DTD/svg11.dtd">
<svg version="1.1" id="Layer_1" xmlns="http://www.w3.org/2000/svg" xmlns:xlink="http://www.w3.org/1999/xlink" x="0px" y="0px"
	 width="328.922px" height="20.242px" viewBox="0 0 328.922 20.242" enable-background="new 0 0 328.922 20.242"
	 xml:space="preserve">
<g>
	<path d="M221.779,20.242l-8.576-10.531v10.531h-5.516V0.001h5.139l8.576,10.588V0.001h5.488v20.241H221.779z"/>
	<path d="M264.736,4.62v3.177h10.545v4.619h-10.545v3.207h10.545v4.619h-16.553V0.001h16.553V4.62H264.736z"/>
	<path d="M314.859,20.242L307.121,0h6.41l4.619,14.004L322.77,0h6.152l-7.826,20.242H314.859z"/>
	<path d="M168.109,0l7.738,20.242h-6.41l-4.619-14.005l-4.621,14.005h-6.152L161.871,0H168.109z"/>
	<path d="M8.865,0C15.418,0,19.75,4.014,19.75,10.106c0,6.092-4.416,10.136-11.088,10.136H0V0H8.865z M6.006,15.534h3.031
		c2.744,0,4.592-2.136,4.592-5.37c0-3.264-1.992-5.43-4.879-5.43H6.006V15.534z"/>
	<path d="M70.617,11.434c0,5.372-3.666,8.809-9.441,8.809c-5.805,0-9.588-3.437-9.588-8.809V0h6.006v11.434
		c0,2.34,1.59,3.783,3.609,3.783c1.994,0,3.408-1.414,3.408-3.783V0h6.006V11.434z"/>
	<path d="M111.32,0c6.555,0,10.887,4.014,10.887,10.106c0,6.092-4.418,10.136-11.09,10.136h-8.662V0H111.32z M108.461,15.534h3.033
		c2.742,0,4.59-2.136,4.59-5.37c0-3.264-1.992-5.43-4.879-5.43h-2.744V15.534z"/>
</g>
</svg>
